# xmcd
#
# Track frame offsets: 
#        150
#        14010
#        26802
#        37946
#        50091
#        63400
#        74766
#        86662
#        97712
#        112194
#        125442
#        138576
#        150783
#        164477
#        176699
#        189282
#        203966
#        218929
#        229243
#        241552
#        255051
#        267745
#        281797
#        294489
#        308817
#
# Disc length: 4290 seconds
#
# Revision: 1
# Processed by: cddbd v1.5.2PL0 Copyright (c) Steve Scherf et al.
# Submitted via: ExactAudioCopy v1.0b1
#
DISCID=6f10c019
DTITLE=Various Artist - Sonny Terry and Brownie McGhee - Country Blues Troubado
DTITLE=urs 1938-1948 - Disc D
DYEAR=2003
DGENRE=Blues
TTITLE0=Brownie and Sticks McGhee - Precious Lord Hold My Hand
TTITLE1=Brownie and Sticks McGhee - If I Could Hear My Mother Pray Again
TTITLE2=Brownie McGhee - Rum Cola Papa
TTITLE3=Brownie McGhee - Mean Old Frisco
TTITLE4=Brownie McGhee - Sportin' Life Blues
TTITLE5=Brownie McGhee - Worried Life Blues
TTITLE6=Brownie McGhee - Brownie's Guitar Boogie
TTITLE7=Brownie McGhee - Lovin' With A Feeling
TTITLE8=Brownie McGhee - Night Time Is The Right Time
TTITLE9=Brownie McGhee - Bad Blood
TTITLE10=Brownie McGhee - I Don't Care
TTITLE11=Brownie McGhee - Big Legged Woman
TTITLE12=Brownie McGhee - B.M. Blues
TTITLE13=Brownie McGhee - Evil But Kindhearted
TTITLE14=Brownie McGhee - Seaboard And Southern
TTITLE15=Brownie McGhee - Dissatified Woman
TTITLE16=Brownie McGhee - How Can I Love You
TTITLE17=Brownie McGhee - Hello Blues
TTITLE18=Sonny Terry - Whoopin' The Blues
TTITLE19=Sonny Terry - Leavin' Blues
TTITLE20=Sonny Terry - Riff And Harmonica Jump
TTITLE21=Sonny Terry - All Alone Blues
TTITLE22=Brownie McGhee - Me And My Dog
TTITLE23=Brownie McGhee - Pawnshop Blues
TTITLE24=Brownie McGhee - The Way I Feel
EXTD=YEAR: 2003
EXTT0=
EXTT1=
EXTT2=
EXTT3=
EXTT4=
EXTT5=
EXTT6=
EXTT7=
EXTT8=
EXTT9=
EXTT10=
EXTT11=
EXTT12=
EXTT13=
EXTT14=
EXTT15=
EXTT16=
EXTT17=
EXTT18=
EXTT19=
EXTT20=
EXTT21=
EXTT22=
EXTT23=
EXTT24=
PLAYORDER=
